<svg width="30" height="30" viewBox="0 0 30 30" fill="none" xmlns="http://www.w3.org/2000/svg">
<g id="mobile_web">
<g id="devices">
<path id="Vector" d="M25 7.5V9.73747C24.6875 9.69997 24.325 9.67499 23.9375 9.67499H18.5875C15.9125 9.67499 15.025 10.5625 15.025 13.2375V19.625H7.5C3.5 19.625 2.5 18.625 2.5 14.625V7.5C2.5 3.5 3.5 2.5 7.5 2.5H20C24 2.5 25 3.5 25 7.5Z" stroke="#2E3E5C" stroke-width="1.5" stroke-linecap="round" stroke-linejoin="round"/>
<path id="Vector_2" d="M2.5 14.875H15" stroke="#2E3E5C" stroke-width="1.5" stroke-linecap="round" stroke-linejoin="round"/>
<g id="Group 119">
<path id="Vector_3" d="M11.25 19.625V25" stroke="#2E3E5C" stroke-width="1.5" stroke-linecap="round" stroke-linejoin="round"/>
<path id="Vector_4" d="M7.43774 25H15.0002" stroke="#2E3E5C" stroke-width="1.5" stroke-linecap="round" stroke-linejoin="round"/>
</g>
<path id="Vector_5" d="M27.475 13.2383V23.9383C27.475 26.6133 26.5875 27.5008 23.9125 27.5008H18.5625C15.8875 27.5008 15 26.6133 15 23.9383V13.2383C15 10.5633 15.8875 9.67578 18.5625 9.67578H23.9125C24.3 9.67578 24.6625 9.70077 24.975 9.73827C26.825 9.97577 27.475 10.9508 27.475 13.2383Z" stroke="#2E3E5C" stroke-width="1.5" stroke-miterlimit="10" stroke-linecap="round" stroke-linejoin="round"/>
<path id="Vector_6" d="M22.5 24C22.5 24.6892 21.9393 25.25 21.25 25.25C20.5608 25.25 20 24.6892 20 24C20 23.7138 20.0993 23.4451 20.2629 23.2348C20.4907 22.9428 20.847 22.75 21.25 22.75C21.5654 22.75 21.8516 22.8668 22.0678 23.0537C22.3306 23.2874 22.5 23.6262 22.5 24Z" stroke="#2E3E5C" stroke-width="1.5" stroke-miterlimit="10" stroke-linecap="round" stroke-linejoin="round"/>
</g>
<path id="Vector 249" d="M20 12.5L22.5 12.5" stroke="#2E3E5C" stroke-width="1.5" stroke-linecap="round"/>
</g>
</svg>
